<?xml version="1.0" encoding="UTF-8" standalone="no"?>
<svg
   xmlns:dc="http://purl.org/dc/elements/1.1/"
   xmlns:cc="http://creativecommons.org/ns#"
   xmlns:rdf="http://www.w3.org/1999/02/22-rdf-syntax-ns#"
   xmlns:svg="http://www.w3.org/2000/svg"
   xmlns="http://www.w3.org/2000/svg"
   xmlns:sodipodi="http://sodipodi.sourceforge.net/DTD/sodipodi-0.dtd"
   xmlns:inkscape="http://www.inkscape.org/namespaces/inkscape"
   version="1.1"
   viewBox="0.0 0.0 960.0 540.0"
   fill="none"
   stroke="none"
   stroke-linecap="square"
   stroke-miterlimit="10"
   id="svg3484"
   inkscape:version="0.91 r13725"
   sodipodi:docname="code-buildpack-stack-app.svg">
  <metadata
     id="metadata3592">
    <rdf:RDF>
      <cc:Work
         rdf:about="">
        <dc:format>image/svg+xml</dc:format>
        <dc:type
           rdf:resource="http://purl.org/dc/dcmitype/StillImage" />
        <dc:title></dc:title>
      </cc:Work>
    </rdf:RDF>
  </metadata>
  <defs
     id="defs3590" />
  <sodipodi:namedview
     pagecolor="#ffffff"
     bordercolor="#666666"
     borderopacity="1"
     objecttolerance="10"
     gridtolerance="10"
     guidetolerance="10"
     inkscape:pageopacity="0"
     inkscape:pageshadow="2"
     inkscape:window-width="1122"
     inkscape:window-height="699"
     id="namedview3588"
     showgrid="false"
     inkscape:zoom="1.0166667"
     inkscape:cx="480"
     inkscape:cy="270"
     inkscape:window-x="0"
     inkscape:window-y="0"
     inkscape:window-maximized="0"
     inkscape:current-layer="svg3484" />
  <clipPath
     id="g264e01e91f_0_46.0">
    <path
       d="m0 0l960.0 0l0 540.0l-960.0 0l0 -540.0z"
       clip-rule="nonzero"
       id="path3487" />
  </clipPath>
  <g
     clip-path="url(#g264e01e91f_0_46.0)"
     id="g3489">
    <path
       fill="#ffffff"
       d="m0 0l960.0 0l0 540.0l-960.0 0z"
       fill-rule="evenodd"
       id="path3491" />
    <path
       fill="#000000"
       fill-opacity="0.0"
       d="m0 0l43.496063 0l0 540.0l-43.496063 0z"
       fill-rule="evenodd"
       id="path3493" />
    <g
       transform="matrix(0.43372871193347967 0.0 0.0 0.4361873990306946 0.0 0.0)"
       id="g3495">
      <clipPath
         id="g264e01e91f_0_46.1">
        <path
           d="m0 0l100.28403 0l0 1238.0l-100.28403 0z"
           clip-rule="evenodd"
           id="path3498" />
      </clipPath>
    </g>
    <path
       fill="#000000"
       fill-opacity="0.0"
       d="m91.82625 36.0l836.3465 0l0 61.51181l-836.3465 0z"
       fill-rule="evenodd"
       id="path3506" />
    <path
       fill="#0d2c40"
       d="m120.46687 72.86153l5.1875 1.640625q-1.203125 4.328125 -3.984375 6.4375q-2.765625 2.109375 -7.015625 2.109375q-5.28125 0 -8.6875 -3.59375q-3.390625 -3.609375 -3.390625 -9.875q0 -6.609375 3.40625 -10.265625q3.421875 -3.65625 8.984375 -3.65625q4.859375 0 7.90625 2.875q1.796875 1.703125 2.703125 4.875l-5.296875 1.265625q-0.46875 -2.0625 -1.96875 -3.25q-1.484375 -1.1875 -3.609375 -1.1875q-2.9375 0 -4.78125 2.109375q-1.828125 2.109375 -1.828125 6.84375q0 5.015625 1.796875 7.15625q1.8125 2.125 4.703125 2.125q2.140625 0 3.671875 -1.34375q1.53125 -1.359375 2.203125 -4.265625zm8.800934 -0.125q0 -2.53125 1.234375 -4.890625q1.25 -2.375 3.53125 -3.625q2.296875 -1.25 5.109375 -1.25q4.359375 0 7.140625 2.828125q2.78125 2.828125 2.78125 7.15625q0 4.34375 -2.8125 7.21875q-2.8125 2.859375 -7.0625 2.859375q-2.640625 0 -5.046875 -1.1875q-2.390625 -1.203125 -3.640625 -3.5q-1.234375 -2.3125 -1.234375 -5.609375zm5.203125 0.265625q0 2.859375 1.34375 4.375q1.359375 1.515625 3.34375 1.515625q2.0 0 3.34375 -1.515625q1.34375 -1.515625 1.34375 -4.40625q0 -2.828125 -1.34375 -4.34375q-1.34375 -1.515625 -3.34375 -1.515625q-1.984375 0 -3.34375 1.515625q-1.34375 1.515625 -1.34375 4.375zm36.364014 9.59375l-4.71875 0l0 -2.8125q-1.171875 1.640625 -2.765625 2.453125q-1.59375 0.796875 -3.21875 0.796875q-3.3125 0 -5.671875 -2.65625q-2.359375 -2.671875 -2.359375 -7.453125q0 -4.875 2.296875 -7.40625q2.296875 -2.546875 5.796875 -2.546875q3.21875 0 5.5625 2.671875l0 -9.53125l5.078125 0l0 26.484375zm-13.546875 -10.015625q0 3.078125 0.84375 4.453125q1.234375 1.984375 3.4375 1.984375q1.75 0 2.96875 -1.484375q1.234375 -1.5 1.234375 -4.453125q0 -3.3125 -1.1875 -4.765625q-1.1875 -1.453125 -3.046875 -1.453125q-1.8125 0 -3.03125 1.4375q-1.21875 1.4375 -1.21875 4.28125zm29.864014 3.90625l5.0625 0.859375q-0.984375 2.78125 -3.09375 4.234375q-2.09375 1.453125 -5.25 1.453125q-5.015625 0 -7.40625 -3.28125q-1.90625 -2.609375 -1.90625 -6.609375q0 -4.765625 2.484375 -7.46875q2.5 -2.703125 6.3125 -2.703125q4.28125 0 6.75 2.828125q2.484375 2.828125 2.375 8.671875l-12.71875 0q0.0625 2.25 1.234375 3.515625q1.171875 1.25 2.921875 1.25q1.1875 0 2.0 -0.640625q0.8125 -0.65625 1.234375 -2.109375zm0.296875 -5.125q-0.0625 -2.203125 -1.15625 -3.34375q-1.078125 -1.15625 -2.625 -1.15625q-1.65625 0 -2.75 1.203125q-1.078125 1.21875 -1.0625 3.296875l7.59375 0zm25.537338 7.421875l0 -6.890625l-6.9375 0l0 -4.75l6.9375 0l0 -6.875l4.625 0l0 6.875l6.953125 0l0 4.75l-6.953125 0l0 6.890625l-4.625 0zm26.404373 -22.671875l10.59375 0q3.140625 0 4.6875 0.265625q1.5468903 0.25 2.7656403 1.09375q1.21875 0.828125 2.03125 2.21875q0.8125 1.375 0.8125 3.09375q0 1.859375 -1.0 3.421875q-1.0 1.546875 -2.71875 2.3125q2.421875 0.703125 3.71875 2.40625q1.296875 1.703125 1.296875 4.0q0 1.796875 -0.84375 3.515625q-0.828125 1.703125 -2.28125 2.71875q-1.453125 1.015625 -3.5937653 1.25q-1.328125 0.15625 -6.453125 0.1875l-9.015625 0l0 -26.484375zm5.359375 4.40625l0 6.125l3.5 0q3.125 0 3.890625 -0.09375q1.359375 -0.15625 2.140625 -0.9375q0.796875 -0.796875 0.796875 -2.078125q0 -1.21875 -0.6875 -1.984375q-0.671875 -0.78125 -2.0 -0.9375q-0.796875 -0.09375 -4.578125 -0.09375l-3.0625 0zm0 10.53125l0 7.078125l4.953125 0q2.890625 0 3.65625 -0.15625q1.203125 -0.21875 1.953125 -1.046875q0.75001526 -0.84375 0.75001526 -2.265625q0 -1.1875 -0.57814026 -2.015625q-0.578125 -0.828125 -1.671875 -1.203125q-1.09375 -0.390625 -4.75 -0.390625l-4.3125 0zm34.17595 11.546875l0 -2.875q-1.046875 1.53125 -2.75 2.421875q-1.703125 0.890625 -3.609375 0.890625q-1.9375 0 -3.46875 -0.84375q-1.53125 -0.859375 -2.21875 -2.390625q-0.6875 -1.546875 -0.6875 -4.25l0 -12.140625l5.078125 0l0 8.8125q0 4.046875 0.28125 4.96875q0.28125 0.90625 1.015625 1.4375q0.75 0.53125 1.875 0.53125q1.3125 0 2.34375 -0.703125q1.03125 -0.71875 1.40625 -1.765625q0.375 -1.0625 0.375 -5.1875l0 -8.09375l5.078125 0l0 19.1875l-4.71875 0zm10.176514 -21.78125l0 -4.703125l5.078125 0l0 4.703125l-5.078125 0zm0 21.78125l0 -19.1875l5.078125 0l0 19.1875l-5.078125 0zm10.370941 0l0 -26.484375l5.078125 0l0 26.484375l-5.078125 0zm27.964722 0l-4.71875 0l0 -2.8125q-1.171875 1.640625 -2.765625 2.453125q-1.59375 0.796875 -3.21875 0.796875q-3.3125 0 -5.671875 -2.65625q-2.359375 -2.671875 -2.359375 -7.453125q0 -4.875 2.296875 -7.40625q2.296875 -2.546875 5.796875 -2.546875q3.21875 0 5.5625 2.671875l0 -9.53125l5.078125 0l0 26.484375zm-13.546875 -10.015625q0 3.078125 0.84375 4.453125q1.234375 1.984375 3.4375 1.984375q1.75 0 2.96875 -1.484375q1.234375 -1.5 1.234375 -4.453125q0 -3.3125 -1.1875 -4.765625q-1.1875 -1.453125 -3.046875 -1.453125q-1.8125 0 -3.03125 1.4375q-1.21875 1.4375 -1.21875 4.28125zm18.614014 -9.171875l4.734375 0l0 2.8125q0.921875 -1.4375 2.484375 -2.34375q1.578125 -0.90625 3.484375 -0.90625q3.34375 0 5.671875 2.625q2.34375 2.625 2.34375 7.296875q0 4.8125 -2.359375 7.484375q-2.34375 2.65625 -5.6875 2.65625q-1.59375 0 -2.890625 -0.625q-1.28125 -0.640625 -2.703125 -2.171875l0 9.65625l-5.078125 0l0 -26.484375zm5.015625 9.265625q0 3.234375 1.28125 4.78125q1.28125 1.546875 3.125 1.546875q1.78125 0 2.953125 -1.421875q1.171875 -1.421875 1.171875 -4.65625q0 -3.015625 -1.21875 -4.46875q-1.203125 -1.46875 -2.984375 -1.46875q-1.875 0 -3.109375 1.4375q-1.21875 1.4375 -1.21875 4.25zm21.723389 -3.40625l-4.609375 -0.84375q0.78125 -2.78125 2.671875 -4.109375q1.890625 -1.34375 5.640625 -1.34375q3.390625 0 5.046875 0.8125q1.671875 0.796875 2.34375 2.046875q0.6875 1.234375 0.6875 4.53125l-0.0625 5.921875q0 2.53125 0.234375 3.734375q0.25 1.203125 0.921875 2.578125l-5.015625 0q-0.203125 -0.5 -0.484375 -1.5q-0.140625 -0.453125 -0.1875 -0.59375q-1.296875 1.265625 -2.78125 1.90625q-1.484375 0.625 -3.15625 0.625q-2.96875 0 -4.6875 -1.609375q-1.703125 -1.609375 -1.703125 -4.0625q0 -1.625 0.78125 -2.890625q0.78125 -1.28125 2.171875 -1.953125q1.40625 -0.6875 4.046875 -1.203125q3.5625 -0.65625 4.9375 -1.234375l0 -0.515625q0 -1.453125 -0.734375 -2.078125q-0.71875 -0.625 -2.71875 -0.625q-1.359375 0 -2.125 0.53125q-0.75 0.53125 -1.21875 1.875zm6.796875 4.109375q-0.984375 0.328125 -3.09375 0.78125q-2.109375 0.453125 -2.765625 0.890625q-1.0 0.703125 -1.0 1.78125q0 1.0625 0.796875 1.84375q0.796875 0.78125 2.03125 0.78125q1.375 0 2.609375 -0.90625q0.921875 -0.6875 1.21875 -1.6875q0.203125 -0.640625 0.203125 -2.46875l0 -1.015625zm26.900757 -4.296875l-5.015625 0.90625q-0.25 -1.5 -1.140625 -2.25q-0.890625 -0.765625 -2.328125 -0.765625q-1.890625 0 -3.03125 1.3125q-1.125 1.296875 -1.125 4.375q0 3.421875 1.140625 4.828125q1.15625 1.40625 3.09375 1.40625q1.453125 0 2.359375 -0.8125q0.921875 -0.828125 1.3125 -2.84375l4.984375 0.859375q-0.78125 3.421875 -2.984375 5.1875q-2.203125 1.75 -5.90625 1.75q-4.203125 0 -6.71875 -2.65625q-2.5 -2.65625 -2.5 -7.359375q0 -4.75 2.515625 -7.390625q2.515625 -2.65625 6.796875 -2.65625q3.5 0 5.5625 1.515625q2.078125 1.5 2.984375 4.59375zm3.8382568 13.515625l0 -26.484375l5.078125 0l0 14.046875l5.953125 -6.75l6.25 0l-6.5625 7.015625l7.03125 12.171875l-5.46875 0l-4.828125 -8.625l-2.375 2.484375l0 6.140625l-5.078125 0zm37.131073 -3.8125l0 -6.890625l-6.9375 0l0 -4.75l6.9375 0l0 -6.875l4.625 0l0 6.875l6.953125 0l0 4.75l-6.953125 0l0 6.890625l-4.625 0zm25.044983 -4.8125l5.203125 -0.5q0.46875 2.625 1.890625 3.859375q1.4375 1.21875 3.890625 1.21875q2.578125 0 3.890625 -1.09375q1.3125 -1.09375 1.3125 -2.5625q0 -0.9375 -0.5625 -1.59375q-0.546875 -0.65625 -1.921875 -1.140625q-0.9375 -0.328125 -4.28125 -1.15625q-4.296875 -1.078125 -6.03125 -2.625q-2.4375 -2.1875 -2.4375 -5.328125q0 -2.03125 1.140625 -3.78125q1.15625 -1.765625 3.3125 -2.6875q2.15625 -0.921875 5.203125 -0.921875q5.0 0 7.515625 2.1875q2.515625 2.1875 2.640625 5.828125l-5.34375 0.234375q-0.34375 -2.03125 -1.46875 -2.921875q-1.125 -0.90625 -3.390625 -0.90625q-2.328125 0 -3.65625 0.96875q-0.84375 0.609375 -0.84375 1.640625q0 0.9375 0.796875 1.609375q1.015625 0.84375 4.90625 1.765625q3.90625 0.921875 5.78125 1.90625q1.875 0.984375 2.921875 2.703125q1.0625 1.703125 1.0625 4.203125q0 2.28125 -1.265625 4.265625q-1.265625 1.984375 -3.578125 2.953125q-2.3125 0.96875 -5.765625 0.96875q-5.015625 0 -7.71875 -2.3125q-2.6875 -2.328125 -3.203125 -6.78125zm35.006958 -10.5625l0 4.046875l-3.46875 0l0 7.734375q0 2.34375 0.09375 2.734375q0.109375 0.390625 0.453125 0.640625q0.359375 0.25 0.859375 0.25q0.703125 0 2.046875 -0.484375l0.4375 3.9375q-1.78125 0.765625 -4.015625 0.765625q-1.375 0 -2.484375 -0.453125q-1.09375 -0.46875 -1.609375 -1.203125q-0.515625 -0.734375 -0.71875 -1.984375q-0.15625 -0.875 -0.15625 -3.578125l0 -8.359375l-2.328125 0l0 -4.046875l2.328125 0l0 -3.8125l5.09375 -2.96875l0 6.78125l3.46875 0zm7.430542 5.859375l-4.609375 -0.84375q0.78125 -2.78125 2.671875 -4.109375q1.890625 -1.34375 5.640625 -1.34375q3.390625 0 5.046875 0.8125q1.671875 0.796875 2.3437195 2.046875q0.6875 1.234375 0.6875 4.53125l-0.0625 5.921875q0 2.53125 0.234375 3.734375q0.25 1.203125 0.921875 2.578125l-5.0155945 0q-0.203125 -0.5 -0.484375 -1.5q-0.140625 -0.453125 -0.1875 -0.59375q-1.296875 1.265625 -2.78125 1.90625q-1.484375 0.625 -3.15625 0.625q-2.96875 0 -4.6875 -1.609375q-1.703125 -1.609375 -1.703125 -4.0625q0 -1.625 0.78125 -2.890625q0.78125 -1.28125 2.171875 -1.953125q1.40625 -0.6875 4.046875 -1.203125q3.5625 -0.65625 4.9375 -1.234375l0 -0.515625q0 -1.453125 -0.734375 -2.078125q-0.71875 -0.625 -2.71875 -0.625q-1.359375 0 -2.125 0.53125q-0.75 0.53125 -1.21875 1.875zm6.796875 4.109375q-0.984375 0.328125 -3.09375 0.78125q-2.109375 0.453125 -2.765625 0.890625q-1.0 0.703125 -1.0 1.78125q0 1.0625 0.796875 1.84375q0.796875 0.78125 2.03125 0.78125q1.375 0 2.609375 -0.90625q0.921875 -0.6875 1.21875 -1.6875q0.203125 -0.640625 0.203125 -2.46875l0 -1.015625zm26.900726 -4.296875l-5.015625 0.90625q-0.25 -1.5 -1.140625 -2.25q-0.890625 -0.765625 -2.328125 -0.765625q-1.890625 0 -3.03125 1.3125q-1.125 1.296875 -1.125 4.375q0 3.421875 1.140625 4.828125q1.15625 1.40625 3.09375 1.40625q1.453125 0 2.359375 -0.8125q0.921875 -0.828125 1.3125 -2.84375l4.984375 0.859375q-0.78125 3.421875 -2.984375 5.1875q-2.203125 1.75 -5.90625 1.75q-4.203125 0 -6.71875 -2.65625q-2.5 -2.65625 -2.5 -7.359375q0 -4.75 2.515625 -7.390625q2.515625 -2.65625 6.796875 -2.65625q3.5 0 5.5625 1.515625q2.078125 1.5 2.984375 4.59375zm3.8382568 13.515625l0 -26.484375l5.078125 0l0 14.046875l5.953125 -6.75l6.25 0l-6.5625 7.015625l7.03125 12.171875l-5.46875 0l-4.828125 -8.625l-2.375 2.484375l0 6.140625l-5.078125 0zm30.193604 -14.75l0 -4.65625l18.515625 0l0 4.65625l-18.515625 0zm0 8.03125l0 -4.6875l18.515625 0l0 4.6875l-18.515625 0zm57.216858 6.71875l-5.8125 0l-2.3125 -6.015625l-10.59375 0l-2.1875 6.015625l-5.671875 0l10.3125 -26.484375l5.65625 0l10.609375 26.484375zm-9.84375 -10.484375l-3.65625 -9.828125l-3.578125 9.828125l7.234375 0zm12.738464 -8.703125l4.734375 0l0 2.8125q0.921875 -1.4375 2.484375 -2.34375q1.578125 -0.90625 3.484375 -0.90625q3.34375 0 5.671875 2.625q2.34375 2.625 2.34375 7.296875q0 4.8125 -2.359375 7.484375q-2.34375 2.65625 -5.6875 2.65625q-1.59375 0 -2.890625 -0.625q-1.28125 -0.640625 -2.703125 -2.171875l0 9.65625l-5.078125 0l0 -26.484375zm5.015625 9.265625q0 3.234375 1.28125 4.78125q1.28125 1.546875 3.125 1.546875q1.78125 0 2.953125 -1.421875q1.171875 -1.421875 1.171875 -4.65625q0 -3.015625 -1.21875 -4.46875q-1.203125 -1.46875 -2.984375 -1.46875q-1.875 0 -3.109375 1.4375q-1.21875 1.4375 -1.21875 4.25zm17.785889 -9.265625l4.734375 0l0 2.8125q0.921875 -1.4375 2.484375 -2.34375q1.578125 -0.90625 3.484375 -0.90625q3.34375 0 5.671875 2.625q2.34375 2.625 2.34375 7.296875q0 4.8125 -2.359375 7.484375q-2.34375 2.65625 -5.6875 2.65625q-1.59375 0 -2.890625 -0.625q-1.28125 -0.640625 -2.703125 -2.171875l0 9.65625l-5.078125 0l0 -26.484375zm5.015625 9.265625q0 3.234375 1.28125 4.78125q1.28125 1.546875 3.125 1.546875q1.78125 0 2.953125 -1.421875q1.171875 -1.421875 1.171875 -4.65625q0 -3.015625 -1.21875 -4.46875q-1.203125 -1.46875 -2.984375 -1.46875q-1.875 0 -3.109375 1.4375q-1.21875 1.4375 -1.21875 4.25z"
       fill-rule="nonzero"
       id="path3508" />
    <path
       fill="#66cc00"
       d="m67.414696 265.00967l117.88059 0l0 75.09393c-58.937126 0 -58.937126 28.892334 -117.88059 14.446167zm9.711914 0l0 -9.735474l117.07549 0l0 75.565c-4.450241 0 -8.906815 0.523407 -8.906815 0.523407l0 -66.352936zm9.128693 -9.735474l0 -9.499924l118.08979 0l0 75.32945c-5.0715027 0 -10.14299 0.39257812 -10.14299 0.39257812l0 -66.22211z"
       fill-rule="evenodd"
       id="path3510" />
    <path
       fill="#000000"
       fill-opacity="0.0"
       d="m67.414696 265.00967l117.88059 0l0 75.09393c-58.937126 0 -58.937126 28.892334 -117.88059 14.446167zm9.711914 0l0 -9.735474l117.07549 0l0 75.565c-4.450241 0 -8.906815 0.523407 -8.906815 0.523407m-99.039986 -76.08841l0 -9.499924l118.08979 0l0 75.32945c-5.0715027 0 -10.14299 0.39257812 -10.14299 0.39257812"
       fill-rule="evenodd"
       id="path3512" />
    <path
       fill="#000000"
       fill-opacity="0.0"
       d="m67.414696 354.54977c58.943466 14.446167 58.943466 -14.446167 117.88059 -14.446167l0 -8.740997c0 0 4.4565735 -0.523407 8.906815 -0.523407l0 -9.3428955c0 0 5.0714874 -0.39257812 10.14299 -0.39257812l0 -75.32945l-118.08979 0l0 9.499924l-9.128693 0l0 9.735474l-9.711914 0z"
       fill-rule="evenodd"
       id="path3514" />
    <path
       stroke="#0d2c40"
       stroke-width="1.0"
       stroke-linejoin="round"
       stroke-linecap="butt"
       d="m67.414696 265.00967l117.88059 0l0 75.09393c-58.937126 0 -58.937126 28.892334 -117.88059 14.446167zm9.711914 0l0 -9.735474l117.07549 0l0 75.565c-4.450241 0 -8.906815 0.523407 -8.906815 0.523407m-99.039986 -76.08841l0 -9.499924l118.08979 0l0 75.32945c-5.0715027 0 -10.14299 0.39257812 -10.14299 0.39257812"
       fill-rule="evenodd"
       id="path3516" />
    <path
       fill="#000000"
       d="m84.164696 299.49658q-0.453125 -0.28125 -0.96875 -0.421875q-0.515625 -0.140625 -1.0625 -0.140625q-1.109375 0 -1.75 0.359375q-0.296875 0.15625 -0.296875 0.34375q0 0.203125 0.390625 0.40625q0.296875 0.15625 1.328125 0.296875q1.890625 0.25 2.640625 0.515625q0.96875 0.34375 1.5 1.03125q0.53125 0.671875 0.53125 1.421875q0 1.015625 -0.90625 1.703125q-1.28125 1.0 -3.34375 1.0q-0.828125 0 -1.53125 -0.15625q-0.703125 -0.140625 -1.28125 -0.421875q-0.140625 0.125 -0.296875 0.1875q-0.15625 0.0625 -0.328125 0.0625q-0.4375 0 -0.703125 -0.28125q-0.265625 -0.296875 -0.265625 -0.984375l0 -0.640625q0 -0.6875 0.265625 -0.96875q0.265625 -0.296875 0.6875 -0.296875q0.34375 0 0.5625 0.1875q0.234375 0.1875 0.375 0.65625q0.4375 0.375 1.046875 0.5625q0.609375 0.1875 1.40625 0.1875q1.3125 0 2.03125 -0.40625q0.34375 -0.203125 0.34375 -0.4375q0 -0.359375 -0.484375 -0.609375q-0.5 -0.234375 -2.03125 -0.40625q-2.296875 -0.234375 -3.0625 -0.921875q-0.78125 -0.6875 -0.78125 -1.671875q0 -1.015625 0.875 -1.703125q1.15625 -0.921875 3.0625 -0.921875q0.65625 0 1.265625 0.125q0.609375 0.125 1.15625 0.375q0.171875 -0.125 0.328125 -0.1875q0.15625 -0.0625 0.28125 -0.0625q0.390625 0 0.65625 0.296875q0.265625 0.28125 0.265625 0.96875l0 0.46875q0 0.625 -0.15625 0.84375q-0.296875 0.421875 -0.8125 0.421875q-0.34375 0 -0.609375 -0.203125q-0.25 -0.21875 -0.328125 -0.578125zm14.086197 2.15625q0 1.09375 -0.609375 2.125q-0.609375 1.015625 -1.8125 1.625q-1.203125 0.609375 -2.5 0.609375q-1.296875 0 -2.484375 -0.59375q-1.1875 -0.609375 -1.8125 -1.640625q-0.625 -1.03125 -0.625 -2.15625q0 -1.140625 0.625 -2.234375q0.640625 -1.09375 1.8125 -1.71875q1.1875 -0.640625 2.484375 -0.640625q1.296875 0 2.5 0.640625q1.203125 0.640625 1.8125 1.734375q0.609375 1.09375 0.609375 2.25zm-1.90625 0q0 -0.921875 -0.65625 -1.6875q-0.890625 -1.03125 -2.359375 -1.03125q-1.296875 0 -2.15625 0.828125q-0.859375 0.8125 -0.859375 1.90625q0 0.890625 0.859375 1.671875q0.875 0.765625 2.15625 0.765625q1.28125 0 2.140625 -0.765625q0.875 -0.78125 0.875 -1.6875zm12.195572 -4.375l0 6.515625q0.609375 0 0.890625 0.28125q0.296875 0.265625 0.296875 0.671875q0 0.421875 -0.296875 0.6875q-0.296875 0.265625 -0.96875 0.265625l-1.8125 0l0 -0.4375q-0.828125 0.375 -1.578125 0.5625q-0.734375 0.1875 -1.390625 0.1875q-0.9375 0 -1.625 -0.390625q-0.6875 -0.40625 -1.09375 -1.09375q-0.28125 -0.5 -0.28125 -1.265625l0 -4.078125l-0.328125 0q-0.6875 0 -0.984375 -0.265625q-0.28125 -0.265625 -0.28125 -0.703125q0 -0.40625 0.28125 -0.671875q0.296875 -0.265625 0.984375 -0.265625l2.234375 0l0 5.65625q0 0.609375 0.28125 0.890625q0.296875 0.28125 0.90625 0.28125q0.5625 0 1.21875 -0.21875q0.671875 -0.234375 1.65625 -0.828125l0 -3.875l-0.6875 0q-0.6875 0 -0.984375 -0.265625q-0.296875 -0.265625 -0.296875 -0.703125q0 -0.40625 0.296875 -0.671875q0.296875 -0.265625 0.984375 -0.265625l2.578125 0zm6.773697 0l0 1.1875q1.1875 -0.859375 1.875 -1.140625q0.703125 -0.296875 1.296875 -0.296875q0.9375 0 1.796875 0.6875q0.59375 0.453125 0.59375 0.9375q0 0.40625 -0.28125 0.703125q-0.28125 0.28125 -0.671875 0.28125q-0.359375 0 -0.75 -0.34375q-0.390625 -0.359375 -0.6875 -0.359375q-0.40625 0 -1.203125 0.5q-0.78125 0.5 -1.96875 1.5l0 2.859375l2.703125 0q0.6875 0 0.96875 0.265625q0.296875 0.265625 0.296875 0.6875q0 0.421875 -0.296875 0.6875q-0.28125 0.265625 -0.96875 0.265625l-5.75 0q-0.671875 0 -0.96875 -0.265625q-0.296875 -0.265625 -0.296875 -0.6875q0 -0.421875 0.296875 -0.6875q0.296875 -0.265625 0.96875 -0.265625l1.140625 0l0 -4.609375l-0.6875 0q-0.6875 0 -0.984375 -0.265625q-0.28125 -0.265625 -0.28125 -0.703125q0 -0.40625 0.28125 -0.671875q0.296875 -0.265625 0.984375 -0.265625l2.59375 0zm14.554955 0.34375q0.34375 -0.328125 0.703125 -0.328125q0.40625 0 0.671875 0.296875q0.265625 0.28125 0.265625 0.96875l0 1.21875q0 0.6875 -0.265625 0.984375q-0.265625 0.28125 -0.6875 0.28125q-0.390625 0 -0.671875 -0.21875q-0.1875 -0.171875 -0.296875 -0.6875q-0.109375 -0.515625 -0.546875 -0.765625q-0.75 -0.4375 -1.9218826 -0.4375q-1.34375 0 -2.15625 0.78125q-0.8125 0.78125 -0.8125 2.0q0 1.109375 0.78125 1.75q0.78125 0.640625 2.59375 0.640625q1.1875076 0 1.9375076 -0.234375q0.453125 -0.140625 0.84375 -0.5q0.40625 -0.359375 0.71875 -0.359375q0.390625 0 0.671875 0.296875q0.296875 0.28125 0.296875 0.671875q0 0.625 -0.875 1.1875q-1.28125 0.84375 -3.7500076 0.84375q-2.203125 0 -3.4375 -0.921875q-1.671875 -1.234375 -1.671875 -3.375q0 -2.03125 1.34375 -3.359375q1.359375 -1.328125 3.546875 -1.328125q0.78125 0 1.4531326 0.15625q0.6875 0.140625 1.265625 0.4375zm12.992447 4.828125l-7.796875 0q0.296875 0.75 1.046875 1.203125q0.765625 0.453125 2.046875 0.453125q1.0625 0 2.8125 -0.453125q0.734375 -0.1875 1.0 -0.1875q0.390625 0 0.640625 0.265625q0.265625 0.265625 0.265625 0.671875q0 0.375 -0.28125 0.640625q-0.375 0.34375 -1.8125 0.65625q-1.4375 0.3125 -2.765625 0.3125q-2.28125 0 -3.65625 -1.28125q-1.359375 -1.296875 -1.359375 -3.1875q0 -2.0 1.484375 -3.25q1.484375 -1.265625 3.40625 -1.265625q1.15625 0 2.125 0.40625q0.96875 0.40625 1.453125 0.875q0.65625 0.6875 1.09375 1.703125q0.296875 0.703125 0.296875 1.640625l0 0.796875zm-2.09375 -1.90625q-0.4375 -0.8125 -1.15625 -1.203125q-0.703125 -0.40625 -1.671875 -0.40625q-0.96875 0 -1.671875 0.40625q-0.703125 0.390625 -1.140625 1.203125l5.640625 0z"
       fill-rule="nonzero"
       id="path3518" />
    <path
       fill="#000000"
       d="m85.08657 319.62158q0.34375 -0.328125 0.703125 -0.328125q0.40625 0 0.671875 0.296875q0.265625 0.28125 0.265625 0.96875l0 1.21875q0 0.6875 -0.265625 0.984375q-0.265625 0.28125 -0.6875 0.28125q-0.390625 0 -0.671875 -0.21875q-0.1875 -0.171875 -0.296875 -0.6875q-0.109375 -0.515625 -0.546875 -0.765625q-0.75 -0.4375 -1.921875 -0.4375q-1.34375 0 -2.15625 0.78125q-0.8125 0.78125 -0.8125 2.0q0 1.109375 0.78125 1.75q0.78125 0.640625 2.59375 0.640625q1.1875 0 1.9375 -0.234375q0.453125 -0.140625 0.84375 -0.5q0.40625 -0.359375 0.71875 -0.359375q0.390625 0 0.671875 0.296875q0.296875 0.28125 0.296875 0.671875q0 0.625 -0.875 1.1875q-1.28125 0.84375 -3.75 0.84375q-2.203125 0 -3.4375 -0.921875q-1.671875 -1.234375 -1.671875 -3.375q0 -2.03125 1.34375 -3.359375q1.359375 -1.328125 3.546875 -1.328125q0.78125 0 1.453125 0.15625q0.6875 0.140625 1.265625 0.4375zm13.164322 4.03125q0 1.09375 -0.609375 2.125q-0.609375 1.015625 -1.8125 1.625q-1.203125 0.609375 -2.5 0.609375q-1.296875 0 -2.484375 -0.59375q-1.1875 -0.609375 -1.8125 -1.640625q-0.625 -1.03125 -0.625 -2.15625q0 -1.140625 0.625 -2.234375q0.640625 -1.09375 1.8125 -1.71875q1.1875 -0.640625 2.484375 -0.640625q1.296875 0 2.5 0.640625q1.203125 0.640625 1.8125 1.734375q0.609375 1.09375 0.609375 2.25zm-1.90625 0q0 -0.921875 -0.65625 -1.6875q-0.890625 -1.03125 -2.359375 -1.03125q-1.296875 0 -2.15625 0.828125q-0.859375 0.8125 -0.859375 1.90625q0 0.890625 0.859375 1.671875q0.875 0.765625 2.15625 0.765625q1.28125 0 2.140625 -0.765625q0.875 -0.78125 0.875 -1.6875zm12.523697 -7.984375l0 10.125l0.328125 0q0.671875 0 0.96875 0.265625q0.296875 0.265625 0.296875 0.6875q0 0.421875 -0.296875 0.6875q-0.28125 0.265625 -0.96875 0.265625l-2.21875 0l0 -0.46875q-0.65625 0.390625 -1.375 0.578125q-0.703125 0.203125 -1.46875 0.203125q-2.140625 0 -3.453125 -1.234375q-1.296875 -1.25 -1.296875 -3.09375q0 -1.9375 1.375 -3.296875q1.375 -1.359375 3.34375 -1.359375q0.75 0 1.453125 0.234375q0.71875 0.21875 1.421875 0.671875l0 -2.359375l-0.328125 0q-0.6875 0 -0.984375 -0.265625q-0.296875 -0.265625 -0.296875 -0.6875q0 -0.421875 0.296875 -0.6875q0.296875 -0.265625 0.984375 -0.265625l2.21875 0zm-1.890625 8.0625q0 -1.171875 -0.828125 -1.984375q-0.828125 -0.8125 -2.03125 -0.8125q-1.1875 0 -2.015625 0.8125q-0.8125 0.8125 -0.8125 1.96875q0 1.046875 0.734375 1.71875q0.75 0.671875 2.09375 0.671875q1.34375 0 2.09375 -0.671875q0.765625 -0.671875 0.765625 -1.703125zm13.492447 0.71875l-7.796875 0q0.296875 0.75 1.046875 1.203125q0.765625 0.453125 2.046875 0.453125q1.0625 0 2.8125 -0.453125q0.734375 -0.1875 1.0 -0.1875q0.390625 0 0.640625 0.265625q0.265625 0.265625 0.265625 0.671875q0 0.375 -0.28125 0.640625q-0.375 0.34375 -1.8125 0.65625q-1.4375 0.3125 -2.765625 0.3125q-2.28125 0 -3.65625 -1.28125q-1.359375 -1.296875 -1.359375 -3.1875q0 -2.0 1.484375 -3.25q1.484375 -1.265625 3.40625 -1.265625q1.15625 0 2.125 0.40625q0.96875 0.40625 1.453125 0.875q0.65625 0.6875 1.09375 1.703125q0.296875 0.703125 0.296875 1.640625l0 0.796875zm-2.09375 -1.90625q-0.4375 -0.8125 -1.15625 -1.203125q-0.703125 -0.40625 -1.671875 -0.40625q-0.96875 0 -1.671875 0.40625q-0.703125 0.390625 -1.140625 1.203125l5.640625 0z"
       fill-rule="nonzero"
       id="path3520" />
    <path
       fill="#fd9a2b"
       d="m313.54068 193.82677l18.787415 -75.149605l99.370056 0l18.787415 75.149605z"
       fill-rule="evenodd"
       id="path3522" />
    <path
       stroke="#0d2c40"
       stroke-width="1.0"
       stroke-linejoin="round"
       stroke-linecap="butt"
       d="m313.54068 193.82677l18.787415 -75.149605l99.370056 0l18.787415 75.149605z"
       fill-rule="evenodd"
       id="path3524" />
    <path
       fill="#000000"
       d="m338.82642 153.0148l5.4375 0q1.609375 0 2.40625 0.140625q0.796875 0.125 1.421875 0.546875q0.625 0.421875 1.03125 1.140625q0.421875 0.703125 0.421875 1.59375q0 0.953125 -0.515625 1.75q-0.5 0.796875 -1.390625 1.1875q1.25 0.375 1.90625 1.25q0.671875 0.859375 0.671875 2.046875q0 0.921875 -0.4375 1.796875q-0.421875 0.875 -1.171875 1.40625q-0.75 0.515625 -1.84375 0.640625q-0.6875 0.078125 -3.3125 0.09375l-4.625 0l0 -13.59375zm2.75 2.25l0 3.15625l1.796875 0q1.609375 0 2.0 -0.046875q0.703125 -0.09375 1.09375 -0.484375q0.40625 -0.40625 0.40625 -1.0625q0 -0.640625 -0.34375 -1.03125q-0.34375 -0.390625 -1.03125 -0.484375q-0.40625 -0.046875 -2.34375 -0.046875l-1.578125 0zm0 5.421875l0 3.625l2.546875 0q1.484375 0 1.875 -0.078125q0.609375 -0.109375 1.0 -0.53125q0.390625 -0.4375 0.390625 -1.171875q0 -0.609375 -0.296875 -1.03125q-0.296875 -0.421875 -0.859375 -0.609375q-0.5625 -0.203125 -2.4375 -0.203125l-2.21875 0zm17.176086 5.921875l0 -1.46875q-0.53125 0.78125 -1.40625 1.234375q-0.875 0.453125 -1.859375 0.453125q-0.984375 0 -1.78125 -0.4375q-0.78125 -0.4375 -1.140625 -1.21875q-0.34375 -0.796875 -0.34375 -2.1875l0 -6.234375l2.609375 0l0 4.53125q0 2.078125 0.140625 2.546875q0.140625 0.46875 0.515625 0.75q0.390625 0.265625 0.96875 0.265625q0.671875 0 1.203125 -0.359375q0.53125 -0.375 0.71875 -0.90625q0.1875 -0.546875 0.1875 -2.671875l0 -4.15625l2.609375 0l0 9.859375l-2.421875 0zm4.9115906 -11.1875l0 -2.40625l2.609375 0l0 2.40625l-2.609375 0zm0 11.1875l0 -9.859375l2.609375 0l0 9.859375l-2.609375 0zm5.183319 0l0 -13.59375l2.609375 0l0 13.59375l-2.609375 0zm14.230164 0l-2.421875 0l0 -1.453125q-0.609375 0.84375 -1.4375 1.265625q-0.8125 0.40625 -1.640625 0.40625q-1.703125 0 -2.921875 -1.359375q-1.203125 -1.375 -1.203125 -3.828125q0 -2.5 1.171875 -3.796875q1.1875 -1.3125 2.984375 -1.3125q1.65625 0 2.859375 1.375l0 -4.890625l2.609375 0l0 13.59375zm-6.96875 -5.140625q0 1.578125 0.4375 2.28125q0.640625 1.015625 1.765625 1.015625q0.90625 0 1.53125 -0.765625q0.625 -0.765625 0.625 -2.28125q0 -1.703125 -0.609375 -2.4375q-0.609375 -0.75 -1.5625 -0.75q-0.9375 0 -1.5625 0.734375q-0.625 0.734375 -0.625 2.203125zm9.255371 -4.71875l2.421875 0l0 1.453125q0.46875 -0.734375 1.28125 -1.203125q0.8125 -0.46875 1.796875 -0.46875q1.703125 0 2.90625 1.34375q1.203125 1.34375 1.203125 3.75q0 2.46875 -1.21875 3.84375q-1.203125 1.359375 -2.921875 1.359375q-0.8125 0 -1.484375 -0.3125q-0.65625 -0.328125 -1.390625 -1.125l0 4.96875l-2.59375 0l0 -13.609375zm2.578125 4.765625q0 1.65625 0.65625 2.453125q0.65625 0.796875 1.59375 0.796875q0.921875 0 1.515625 -0.71875q0.609375 -0.734375 0.609375 -2.40625q0 -1.546875 -0.625 -2.296875q-0.625 -0.75 -1.53125 -0.75q-0.96875 0 -1.59375 0.734375q-0.625 0.734375 -0.625 2.1875zm10.833466 -1.75l-2.359375 -0.4375q0.390625 -1.421875 1.359375 -2.109375q0.984375 -0.6875 2.90625 -0.6875q1.734375 0 2.59375 0.421875q0.859375 0.40625 1.203125 1.046875q0.34375 0.625 0.34375 2.328125l-0.03125 3.046875q0 1.296875 0.125 1.921875q0.125 0.609375 0.46875 1.3125l-2.578125 0q-0.09375 -0.265625 -0.25 -0.765625q-0.0625 -0.234375 -0.09375 -0.3125q-0.65625 0.65625 -1.421875 0.984375q-0.765625 0.3125 -1.625 0.3125q-1.515625 0 -2.40625 -0.8125q-0.875 -0.828125 -0.875 -2.09375q0 -0.84375 0.390625 -1.484375q0.40625 -0.65625 1.125 -1.0q0.71875 -0.359375 2.078125 -0.625q1.828125 -0.328125 2.53125 -0.625l0 -0.265625q0 -0.75 -0.375 -1.0625q-0.359375 -0.328125 -1.390625 -0.328125q-0.703125 0 -1.09375 0.28125q-0.390625 0.265625 -0.625 0.953125zm3.484375 2.109375q-0.5 0.171875 -1.59375 0.40625q-1.078125 0.234375 -1.40625 0.453125q-0.515625 0.359375 -0.515625 0.921875q0 0.546875 0.40625 0.953125q0.40625 0.390625 1.046875 0.390625q0.703125 0 1.34375 -0.46875q0.46875 -0.359375 0.625 -0.859375q0.09375 -0.34375 0.09375 -1.28125l0 -0.515625zm13.531982 -2.203125l-2.5625 0.46875q-0.140625 -0.78125 -0.59375 -1.171875q-0.453125 -0.390625 -1.1875 -0.390625q-0.984375 0 -1.5625 0.671875q-0.578125 0.671875 -0.578125 2.25q0 1.765625 0.578125 2.484375q0.59375 0.71875 1.59375 0.71875q0.75 0 1.21875 -0.421875q0.46875 -0.421875 0.671875 -1.453125l2.546875 0.4375q-0.390625 1.765625 -1.53125 2.671875q-1.125 0.890625 -3.03125 0.890625q-2.15625 0 -3.453125 -1.359375q-1.28125 -1.359375 -1.28125 -3.78125q0 -2.4375 1.296875 -3.796875q1.296875 -1.359375 3.484375 -1.359375q1.796875 0 2.859375 0.78125q1.0625 0.765625 1.53125 2.359375zm1.6882019 6.9375l0 -13.59375l2.609375 0l0 7.203125l3.0625 -3.46875l3.203125 0l-3.375 3.609375l3.609375 6.25l-2.796875 0l-2.484375 -4.421875l-1.21875 1.265625l0 3.15625l-2.609375 0z"
       fill-rule="nonzero"
       id="path3526" />
    <path
       fill="#02d35f"
       d="m292.12335 396.39633l0 0c0 -6.009918 4.8720093 -10.881897 10.881897 -10.881897l158.01575 0c2.8860474 0 5.6539 1.1464844 7.6946716 3.1872253c2.040741 2.0407715 3.1872253 4.8085938 3.1872253 7.6946716l0 43.527557c0 6.0098877 -4.8719788 10.881897 -10.881897 10.881897l-158.01575 0c-6.0098877 0 -10.881897 -4.8720093 -10.881897 -10.881897z"
       fill-rule="evenodd"
       id="path3528" />
    <path
       stroke="#0d2c40"
       stroke-width="1.0"
       stroke-linejoin="round"
       stroke-linecap="butt"
       d="m292.12335 396.39633l0 0c0 -6.009918 4.8720093 -10.881897 10.881897 -10.881897l158.01575 0c2.8860474 0 5.6539 1.1464844 7.6946716 3.1872253c2.040741 2.0407715 3.1872253 4.8085938 3.1872253 7.6946716l0 43.527557c0 6.0098877 -4.8719788 10.881897 -10.881897 10.881897l-158.01575 0c-6.0098877 0 -10.881897 -4.8720093 -10.881897 -10.881897z"
       fill-rule="evenodd"
       id="path3530" />
    <path
       fill="#000000"
       d="m327.40933 420.7051l1.6875 -0.140625q0.125 1.015625 0.5625 1.671875q0.4375 0.65625 1.359375 1.0625q0.9375 0.40625 2.09375 0.40625q1.03125 0 1.8125 -0.3125q0.796875 -0.3125 1.1875 -0.84375q0.390625 -0.53125 0.390625 -1.15625q0 -0.640625 -0.375 -1.109375q-0.375 -0.484375 -1.234375 -0.8125q-0.546875 -0.21875 -2.421875 -0.65625q-1.875 -0.453125 -2.625 -0.859375q-0.96875 -0.515625 -1.453125 -1.265625q-0.46875 -0.75 -0.46875 -1.6875q0 -1.03125 0.578125 -1.921875q0.59375 -0.90625 1.703125 -1.359375q1.125 -0.46875 2.5 -0.46875q1.515625 0 2.671875 0.484375q1.15625 0.484375 1.765625 1.4375q0.625 0.9375 0.671875 2.140625l-1.71875 0.125q-0.140625 -1.28125 -0.953125 -1.9375q-0.796875 -0.671875 -2.359375 -0.671875q-1.625 0 -2.375 0.609375q-0.75 0.59375 -0.75 1.4375q0 0.734375 0.53125 1.203125q0.515625 0.46875 2.703125 0.96875q2.203125 0.5 3.015625 0.875q1.1875 0.546875 1.75 1.390625q0.578125 0.828125 0.578125 1.921875q0 1.09375 -0.625 2.0625q-0.625 0.953125 -1.796875 1.484375q-1.15625 0.53125 -2.609375 0.53125q-1.84375 0 -3.09375 -0.53125q-1.25 -0.546875 -1.96875 -1.625q-0.703125 -1.078125 -0.734375 -2.453125zm16.490448 2.875l0.234375 1.484375q-0.703125 0.140625 -1.265625 0.140625q-0.90625 0 -1.40625 -0.28125q-0.5 -0.296875 -0.703125 -0.75q-0.203125 -0.46875 -0.203125 -1.984375l0 -5.65625l-1.234375 0l0 -1.3125l1.234375 0l0 -2.4375l1.65625 -1.0l0 3.4375l1.6875 0l0 1.3125l-1.6875 0l0 5.75q0 0.71875 0.078125 0.921875q0.09375 0.203125 0.296875 0.328125q0.203125 0.125 0.578125 0.125q0.265625 0 0.734375 -0.078125zm7.9645386 0.28125q-0.9375 0.796875 -1.796875 1.125q-0.859375 0.3125 -1.84375 0.3125q-1.609375 0 -2.484375 -0.78125q-0.875 -0.796875 -0.875 -2.03125q0 -0.734375 0.328125 -1.328125q0.328125 -0.59375 0.859375 -0.953125q0.53125 -0.359375 1.203125 -0.546875q0.5 -0.140625 1.484375 -0.25q2.03125 -0.25 2.984375 -0.578125q0 -0.34375 0 -0.4375q0 -1.015625 -0.46875 -1.4375q-0.640625 -0.5625 -1.90625 -0.5625q-1.171875 0 -1.734375 0.40625q-0.5625 0.40625 -0.828125 1.46875l-1.640625 -0.234375q0.234375 -1.046875 0.734375 -1.6875q0.515625 -0.640625 1.46875 -0.984375q0.96875 -0.359375 2.25 -0.359375q1.265625 0 2.046875 0.296875q0.78125 0.296875 1.15625 0.75q0.375 0.453125 0.515625 1.140625q0.09375 0.421875 0.09375 1.53125l0 2.234375q0 2.328125 0.09375 2.953125q0.109375 0.609375 0.4375 1.171875l-1.75 0q-0.265625 -0.515625 -0.328125 -1.21875zm-0.140625 -3.71875q-0.90625 0.359375 -2.734375 0.625q-1.03125 0.140625 -1.453125 0.328125q-0.421875 0.1875 -0.65625 0.546875q-0.234375 0.359375 -0.234375 0.796875q0 0.671875 0.5 1.125q0.515625 0.4375 1.484375 0.4375q0.96875 0 1.71875 -0.421875q0.75 -0.4375 1.109375 -1.15625q0.265625 -0.578125 0.265625 -1.671875l0 -0.609375zm10.516357 1.328125l1.640625 0.21875q-0.265625 1.6875 -1.375 2.65625q-1.109375 0.953125 -2.734375 0.953125q-2.015625 0 -3.25 -1.3125q-1.21875 -1.328125 -1.21875 -3.796875q0 -1.59375 0.515625 -2.78125q0.53125 -1.203125 1.609375 -1.796875q1.09375 -0.609375 2.359375 -0.609375q1.609375 0 2.625 0.8125q1.015625 0.8125 1.3125 2.3125l-1.625 0.25q-0.234375 -1.0 -0.828125 -1.5q-0.59375 -0.5 -1.421875 -0.5q-1.265625 0 -2.0625 0.90625q-0.78125 0.90625 -0.78125 2.859375q0 1.984375 0.765625 2.890625q0.765625 0.890625 1.984375 0.890625q0.984375 0 1.640625 -0.59375q0.65625 -0.609375 0.84375 -1.859375zm2.90625 3.609375l0 -13.59375l1.671875 0l0 7.75l3.953125 -4.015625l2.15625 0l-3.765625 3.65625l4.140625 6.203125l-2.0625 0l-3.25 -5.03125l-1.171875 1.125l0 3.90625l-1.671875 0zm17.683289 4.0q-1.375 -1.75 -2.328125 -4.078125q-0.953125 -2.34375 -0.953125 -4.84375q0 -2.21875 0.703125 -4.234375q0.84375 -2.34375 2.578125 -4.671875l1.203125 0q-1.125 1.921875 -1.484375 2.75q-0.5625 1.28125 -0.890625 2.671875q-0.40625 1.734375 -0.40625 3.484375q0 4.46875 2.78125 8.921875l-1.203125 0zm3.009552 -4.0l0 -9.859375l1.5 0l0 1.5q0.578125 -1.046875 1.0625 -1.375q0.484375 -0.34375 1.078125 -0.34375q0.84375 0 1.71875 0.546875l-0.578125 1.546875q-0.609375 -0.359375 -1.234375 -0.359375q-0.546875 0 -0.984375 0.328125q-0.421875 0.328125 -0.609375 0.90625q-0.28125 0.890625 -0.28125 1.953125l0 5.15625l-1.671875 0zm5.603302 -4.921875q0 -2.734375 1.53125 -4.0625q1.265625 -1.09375 3.09375 -1.09375q2.03125 0 3.3125 1.34375q1.296875 1.328125 1.296875 3.671875q0 1.90625 -0.578125 3.0q-0.5625 1.078125 -1.65625 1.6875q-1.078125 0.59375 -2.375 0.59375q-2.0625 0 -3.34375 -1.328125q-1.28125 -1.328125 -1.28125 -3.8125zm1.71875 0q0 1.890625 0.828125 2.828125q0.828125 0.9375 2.078125 0.9375q1.25 0 2.0625 -0.9375q0.828125 -0.953125 0.828125 -2.890625q0 -1.828125 -0.828125 -2.765625q-0.828125 -0.9375 -2.0625 -0.9375q-1.25 0 -2.078125 0.9375q-0.828125 0.9375 -0.828125 2.828125zm8.656982 0q0 -2.734375 1.53125 -4.0625q1.265625 -1.09375 3.09375 -1.09375q2.03125 0 3.3125 1.34375q1.296875 1.328125 1.296875 3.671875q0 1.90625 -0.578125 3.0q-0.5625 1.078125 -1.65625 1.6875q-1.078125 0.59375 -2.375 0.59375q-2.0625 0 -3.34375 -1.328125q-1.28125 -1.328125 -1.28125 -3.8125zm1.71875 0q0 1.890625 0.828125 2.828125q0.828125 0.9375 2.078125 0.9375q1.25 0 2.0625 -0.9375q0.828125 -0.953125 0.828125 -2.890625q0 -1.828125 -0.828125 -2.765625q-0.828125 -0.9375 -2.0625 -0.9375q-1.25 0 -2.078125 0.9375q-0.828125 0.9375 -0.828125 2.828125zm12.938202 3.421875l0.234375 1.484375q-0.703125 0.140625 -1.265625 0.140625q-0.90625 0 -1.40625 -0.28125q-0.5 -0.296875 -0.703125 -0.75q-0.203125 -0.46875 -0.203125 -1.984375l0 -5.65625l-1.234375 0l0 -1.3125l1.234375 0l0 -2.4375l1.65625 -1.0l0 3.4375l1.6875 0l0 1.3125l-1.6875 0l0 5.75q0 0.71875 0.078125 0.921875q0.09375 0.203125 0.296875 0.328125q0.203125 0.125 0.578125 0.125q0.265625 0 0.734375 -0.078125zm1.9333191 1.5l0 -8.546875l-1.484375 0l0 -1.3125l1.484375 0l0 -1.046875q0 -0.984375 0.171875 -1.46875q0.234375 -0.65625 0.84375 -1.046875q0.609375 -0.40625 1.703125 -0.40625q0.703125 0 1.5625 0.15625l-0.25 1.46875q-0.515625 -0.09375 -0.984375 -0.09375q-0.765625 0 -1.078125 0.328125q-0.3125 0.3125 -0.3125 1.203125l0 0.90625l1.921875 0l0 1.3125l-1.921875 0l0 8.546875l-1.65625 0zm4.1051636 -2.9375l1.65625 -0.265625q0.140625 1.0 0.765625 1.53125q0.640625 0.515625 1.78125 0.515625q1.15625 0 1.703125 -0.46875q0.5625 -0.46875 0.5625 -1.09375q0 -0.5625 -0.484375 -0.890625q-0.34375 -0.21875 -1.703125 -0.5625q-1.84375 -0.46875 -2.5625 -0.796875q-0.703125 -0.34375 -1.078125 -0.9375q-0.359375 -0.609375 -0.359375 -1.328125q0 -0.65625 0.296875 -1.21875q0.3125 -0.5625 0.828125 -0.9375q0.390625 -0.28125 1.0625 -0.484375q0.671875 -0.203125 1.4375 -0.203125q1.171875 0 2.046875 0.34375q0.875 0.328125 1.28125 0.90625q0.421875 0.5625 0.578125 1.515625l-1.625 0.21875q-0.109375 -0.75 -0.65625 -1.171875q-0.53125 -0.4375 -1.5 -0.4375q-1.15625 0 -1.640625 0.390625q-0.484375 0.375 -0.484375 0.875q0 0.328125 0.203125 0.59375q0.203125 0.265625 0.640625 0.4375q0.25 0.09375 1.46875 0.4375q1.765625 0.46875 2.46875 0.765625q0.703125 0.296875 1.09375 0.875q0.40625 0.578125 0.40625 1.4375q0 0.828125 -0.484375 1.578125q-0.484375 0.734375 -1.40625 1.140625q-0.921875 0.390625 -2.078125 0.390625q-1.921875 0 -2.9375 -0.796875q-1.0 -0.796875 -1.28125 -2.359375zm11.09375 6.9375l-1.1875 0q2.765625 -4.453125 2.765625 -8.921875q0 -1.734375 -0.390625 -3.453125q-0.328125 -1.390625 -0.890625 -2.671875q-0.359375 -0.84375 -1.484375 -2.78125l1.1875 0q1.75 2.328125 2.578125 4.671875q0.71875 2.015625 0.71875 4.234375q0 2.5 -0.96875 4.84375q-0.953125 2.328125 -2.328125 4.078125z"
       fill-rule="nonzero"
       id="path3532" />
    <path
       fill="#a7a9ac"
       d="m292.12335 261.58267l171.67719 0l0 72.68506l-171.67719 0z"
       fill-rule="evenodd"
       id="path3534" />
    <path
       fill="#858789"
       d="m463.80054 261.58267l24.228333 -24.228348l0 72.68504l-24.228333 24.228363z"
       fill-rule="evenodd"
       id="path3536" />
    <path
       fill="#b8babc"
       d="m292.12335 261.58267l24.228363 -24.228348l171.67715 0l-24.228333 24.228348z"
       fill-rule="evenodd"
       id="path3538" />
    <path
       fill="#000000"
       fill-opacity="0.0"
       d="m292.12335 261.58267l24.228363 -24.228348l171.67715 0l0 72.68504l-24.228333 24.228363l-171.67719 0zm0 0l171.67719 0l24.228333 -24.228348m-24.228333 24.228348l0 72.68506"
       fill-rule="evenodd"
       id="path3540" />
    <path
       stroke="#0d2c40"
       stroke-width="1.0"
       stroke-linejoin="round"
       stroke-linecap="butt"
       d="m292.12335 261.58267l24.228363 -24.228348l171.67715 0l0 72.68504l-24.228333 24.228363l-171.67719 0zm0 0l171.67719 0l24.228333 -24.228348m-24.228333 24.228348l0 72.68506"
       fill-rule="evenodd"
       id="path3542" />
    <path
       fill="#000000"
       d="m301.98273 300.47018l1.6875 -0.140625q0.125 1.015625 0.5625 1.671875q0.4375 0.65625 1.359375 1.0625q0.9375 0.40625 2.09375 0.40625q1.03125 0 1.8125 -0.3125q0.796875 -0.3125 1.1875 -0.84375q0.390625 -0.53125 0.390625 -1.15625q0 -0.640625 -0.375 -1.109375q-0.375 -0.484375 -1.234375 -0.8125q-0.546875 -0.21875 -2.421875 -0.65625q-1.875 -0.453125 -2.625 -0.859375q-0.96875 -0.515625 -1.453125 -1.265625q-0.46875 -0.75 -0.46875 -1.6875q0 -1.03125 0.578125 -1.921875q0.59375 -0.90625 1.703125 -1.359375q1.125 -0.46875 2.5 -0.46875q1.515625 0 2.671875 0.484375q1.15625 0.484375 1.765625 1.4375q0.625 0.9375 0.671875 2.140625l-1.71875 0.125q-0.140625 -1.28125 -0.953125 -1.9375q-0.796875 -0.671875 -2.359375 -0.671875q-1.625 0 -2.375 0.609375q-0.75 0.59375 -0.75 1.4375q0 0.734375 0.53125 1.203125q0.515625 0.46875 2.703125 0.96875q2.203125 0.5 3.015625 0.875q1.1875 0.546875 1.75 1.390625q0.578125 0.828125 0.578125 1.921875q0 1.09375 -0.625 2.0625q-0.625 0.953125 -1.796875 1.484375q-1.15625 0.53125 -2.609375 0.53125q-1.84375 0 -3.09375 -0.53125q-1.25 -0.546875 -1.96875 -1.625q-0.703125 -1.078125 -0.734375 -2.453125zm16.490448 2.875l0.234375 1.484375q-0.703125 0.140625 -1.265625 0.140625q-0.90625 0 -1.40625 -0.28125q-0.5 -0.296875 -0.703125 -0.75q-0.203125 -0.46875 -0.203125 -1.984375l0 -5.65625l-1.234375 0l0 -1.3125l1.234375 0l0 -2.4375l1.65625 -1.0l0 3.4375l1.6875 0l0 1.3125l-1.6875 0l0 5.75q0 0.71875 0.078125 0.921875q0.09375 0.203125 0.296875 0.328125q0.203125 0.125 0.578125 0.125q0.265625 0 0.734375 -0.078125zm7.964569 0.28125q-0.9375 0.796875 -1.796875 1.125q-0.859375 0.3125 -1.84375 0.3125q-1.609375 0 -2.484375 -0.78125q-0.875 -0.796875 -0.875 -2.03125q0 -0.734375 0.328125 -1.328125q0.328125 -0.59375 0.859375 -0.953125q0.53125 -0.359375 1.203125 -0.546875q0.5 -0.140625 1.484375 -0.25q2.03125 -0.25 2.984375 -0.578125q0 -0.34375 0 -0.4375q0 -1.015625 -0.46875 -1.4375q-0.640625 -0.5625 -1.90625 -0.5625q-1.171875 0 -1.734375 0.40625q-0.5625 0.40625 -0.828125 1.46875l-1.640625 -0.234375q0.234375 -1.046875 0.734375 -1.6875q0.515625 -0.640625 1.46875 -0.984375q0.96875 -0.359375 2.25 -0.359375q1.265625 0 2.046875 0.296875q0.78125 0.296875 1.15625 0.75q0.375 0.453125 0.515625 1.140625q0.09375 0.421875 0.09375 1.53125l0 2.234375q0 2.328125 0.09375 2.953125q0.109375 0.609375 0.4375 1.171875l-1.75 0q-0.265625 -0.515625 -0.328125 -1.21875zm-0.140625 -3.71875q-0.90625 0.359375 -2.734375 0.625q-1.03125 0.140625 -1.453125 0.328125q-0.421875 0.1875 -0.65625 0.546875q-0.234375 0.359375 -0.234375 0.796875q0 0.671875 0.5 1.125q0.515625 0.4375 1.484375 0.4375q0.96875 0 1.71875 -0.421875q0.75 -0.4375 1.109375 -1.15625q0.265625 -0.578125 0.265625 -1.671875l0 -0.609375zm3.781952 5.75l1.609375 0.25q0.109375 0.75 0.578125 1.09375q0.609375 0.453125 1.6875 0.453125q1.171875 0 1.796875 -0.46875q0.625 -0.453125 0.859375 -1.28125q0.125 -0.515625 0.109375 -2.15625q-1.09375 1.296875 -2.71875 1.296875q-2.03125 0 -3.15625 -1.46875q-1.109375 -1.46875 -1.109375 -3.515625q0 -1.40625 0.515625 -2.59375q0.515625 -1.203125 1.484375 -1.84375q0.96875 -0.65625 2.265625 -0.65625q1.75 0 2.875 1.40625l0 -1.1875l1.546875 0l0 8.515625q0 2.3125 -0.46875 3.265625q-0.46875 0.96875 -1.484375 1.515625q-1.015625 0.5625 -2.5 0.5625q-1.765625 0 -2.859375 -0.796875q-1.078125 -0.796875 -1.03125 -2.390625zm1.375 -5.921875q0 1.953125 0.765625 2.84375q0.78125 0.890625 1.9375 0.890625q1.140625 0 1.921875 -0.890625q0.78125 -0.890625 0.78125 -2.78125q0 -1.8125 -0.8125 -2.71875q-0.796875 -0.921875 -1.921875 -0.921875q-1.109375 0 -1.890625 0.90625q-0.78125 0.890625 -0.78125 2.671875zm9.313232 -6.578125l0 -1.90625l1.671875 0l0 1.90625l-1.671875 0zm0 11.6875l0 -9.859375l1.671875 0l0 9.859375l-1.671875 0zm4.129181 0l0 -9.859375l1.5 0l0 1.40625q1.09375 -1.625 3.140625 -1.625q0.890625 0 1.640625 0.328125q0.75 0.3125 1.109375 0.84375q0.375 0.515625 0.53125 1.21875q0.09375 0.46875 0.09375 1.625l0 6.0625l-1.671875 0l0 -6.0q0 -1.015625 -0.203125 -1.515625q-0.1875 -0.515625 -0.6875 -0.8125q-0.5 -0.296875 -1.171875 -0.296875q-1.0625 0 -1.84375 0.671875q-0.765625 0.671875 -0.765625 2.578125l0 5.375l-1.671875 0zm10.078857 0.8125l1.609375 0.25q0.109375 0.75 0.578125 1.09375q0.609375 0.453125 1.6875 0.453125q1.171875 0 1.796875 -0.46875q0.625 -0.453125 0.859375 -1.28125q0.125 -0.515625 0.109375 -2.15625q-1.09375 1.296875 -2.71875 1.296875q-2.03125 0 -3.15625 -1.46875q-1.109375 -1.46875 -1.109375 -3.515625q0 -1.40625 0.515625 -2.59375q0.515625 -1.203125 1.484375 -1.84375q0.96875 -0.65625 2.265625 -0.65625q1.75 0 2.875 1.40625l0 -1.1875l1.546875 0l0 8.515625q0 2.3125 -0.46875 3.265625q-0.46875 0.96875 -1.484375 1.515625q-1.015625 0.5625 -2.5 0.5625q-1.765625 0 -2.859375 -0.796875q-1.078125 -0.796875 -1.03125 -2.390625zm1.375 -5.921875q0 1.953125 0.765625 2.84375q0.78125 0.890625 1.9375 0.890625q1.140625 0 1.921875 -0.890625q0.78125 -0.890625 0.78125 -2.78125q0 -1.8125 -0.8125 -2.71875q-0.796875 -0.921875 -1.921875 -0.921875q-1.109375 0 -1.890625 0.90625q-0.78125 0.890625 -0.78125 2.671875zm24.402771 0.34375l1.796875 0.453125q-0.5625 2.21875 -2.03125 3.390625q-1.46875 1.15625 -3.59375 1.15625q-2.203125 0 -3.578125 -0.890625q-1.375 -0.90625 -2.09375 -2.59375q-0.71875 -1.703125 -0.71875 -3.65625q0 -2.125 0.796875 -3.703125q0.8125 -1.578125 2.3125 -2.390625q1.5 -0.828125 3.296875 -0.828125q2.046875 0 3.4375 1.046875q1.390625 1.03125 1.9375 2.90625l-1.765625 0.421875q-0.46875 -1.484375 -1.375 -2.15625q-0.90625 -0.6875 -2.265625 -0.6875q-1.5625 0 -2.625 0.75q-1.046875 0.75 -1.484375 2.03125q-0.421875 1.265625 -0.421875 2.609375q0 1.734375 0.5 3.03125q0.515625 1.28125 1.578125 1.921875q1.078125 0.640625 2.3125 0.640625q1.515625 0 2.5625 -0.859375q1.046875 -0.875 1.421875 -2.59375zm2.926056 -0.15625q0 -2.734375 1.53125 -4.0625q1.265625 -1.09375 3.09375 -1.09375q2.03125 0 3.3125 1.34375q1.296875 1.328125 1.296875 3.671875q0 1.90625 -0.578125 3.0q-0.5625 1.078125 -1.65625 1.6875q-1.078125 0.59375 -2.375 0.59375q-2.0625 0 -3.34375 -1.328125q-1.28125 -1.328125 -1.28125 -3.8125zm1.71875 0q0 1.890625 0.828125 2.828125q0.828125 0.9375 2.078125 0.9375q1.25 0 2.0625 -0.9375q0.828125 -0.953125 0.828125 -2.890625q0 -1.828125 -0.828125 -2.765625q-0.828125 -0.9375 -2.0625 -0.9375q-1.25 0 -2.078125 0.9375q-0.828125 0.9375 -0.828125 2.828125zm9.281982 4.921875l0 -9.859375l1.5 0l0 1.40625q1.09375 -1.625 3.140625 -1.625q0.890625 0 1.640625 0.328125q0.75 0.3125 1.109375 0.84375q0.375 0.515625 0.53125 1.21875q0.09375 0.46875 0.09375 1.625l0 6.0625l-1.671875 0l0 -6.0q0 -1.015625 -0.203125 -1.515625q-0.1875 -0.515625 -0.6875 -0.8125q-0.5 -0.296875 -1.171875 -0.296875q-1.0625 0 -1.84375 0.671875q-0.765625 0.671875 -0.765625 2.578125l0 5.375l-1.671875 0zm14.031952 -1.5l0.234375 1.484375q-0.703125 0.140625 -1.265625 0.140625q-0.90625 0 -1.40625 -0.28125q-0.5 -0.296875 -0.703125 -0.75q-0.203125 -0.46875 -0.203125 -1.984375l0 -5.65625l-1.234375 0l0 -1.3125l1.234375 0l0 -2.4375l1.65625 -1.0l0 3.4375l1.6875 0l0 1.3125l-1.6875 0l0 5.75q0 0.71875 0.078125 0.921875q0.09375 0.203125 0.296875 0.328125q0.203125 0.125 0.578125 0.125q0.265625 0 0.734375 -0.078125zm7.964569 0.28125q-0.9375 0.796875 -1.796875 1.125q-0.859375 0.3125 -1.84375 0.3125q-1.609375 0 -2.484375 -0.78125q-0.875 -0.796875 -0.875 -2.03125q0 -0.734375 0.328125 -1.328125q0.328125 -0.59375 0.859375 -0.953125q0.53125 -0.359375 1.203125 -0.546875q0.5 -0.140625 1.484375 -0.25q2.03125 -0.25 2.984375 -0.578125q0 -0.34375 0 -0.4375q0 -1.015625 -0.46875 -1.4375q-0.640625 -0.5625 -1.90625 -0.5625q-1.171875 0 -1.734375 0.40625q-0.5625 0.40625 -0.828125 1.46875l-1.640625 -0.234375q0.234375 -1.046875 0.734375 -1.6875q0.515625 -0.640625 1.46875 -0.984375q0.96875 -0.359375 2.25 -0.359375q1.265625 0 2.046875 0.296875q0.78125 0.296875 1.15625 0.75q0.375 0.453125 0.515625 1.140625q0.09375 0.421875 0.09375 1.53125l0 2.234375q0 2.328125 0.09375 2.953125q0.109375 0.609375 0.4375 1.171875l-1.75 0q-0.265625 -0.515625 -0.328125 -1.21875zm-0.140625 -3.71875q-0.90625 0.359375 -2.734375 0.625q-1.03125 0.140625 -1.453125 0.328125q-0.421875 0.1875 -0.65625 0.546875q-0.234375 0.359375 -0.234375 0.796875q0 0.671875 0.5 1.125q0.515625 0.4375 1.484375 0.4375q0.96875 0 1.71875 -0.421875q0.75 -0.4375 1.109375 -1.15625q0.265625 -0.578125 0.265625 -1.671875l0 -0.609375zm4.094452 -6.75l0 -1.90625l1.671875 0l0 1.90625l-1.671875 0zm0 11.6875l0 -9.859375l1.671875 0l0 9.859375l-1.671875 0zm4.1292114 0l0 -9.859375l1.5 0l0 1.40625q1.09375 -1.625 3.140625 -1.625q0.890625 0 1.640625 0.328125q0.75 0.3125 1.109375 0.84375q0.375 0.515625 0.53125 1.21875q0.09375 0.46875 0.09375 1.625l0 6.0625l-1.671875 0l0 -6.0q0 -1.015625 -0.203125 -1.515625q-0.1875 -0.515625 -0.6875 -0.8125q-0.5 -0.296875 -1.171875 -0.296875q-1.0625 0 -1.84375 0.671875q-0.765625 0.671875 -0.765625 2.578125l0 5.375l-1.671875 0zm17.125702 -3.171875l1.71875 0.21875q-0.40625 1.5 -1.515625 2.34375q-1.09375 0.828125 -2.8125 0.828125q-2.15625 0 -3.421875 -1.328125q-1.265625 -1.328125 -1.265625 -3.734375q0 -2.484375 1.265625 -3.859375q1.28125 -1.375 3.328125 -1.375q1.984375 0 3.234375 1.34375q1.25 1.34375 1.25 3.796875q0 0.140625 -0.015625 0.4375l-7.34375 0q0.09375 1.625 0.921875 2.484375q0.828125 0.859375 2.0625 0.859375q0.90625 0 1.546875 -0.46875q0.65625 -0.484375 1.046875 -1.546875zm-5.484375 -2.703125l5.5 0q-0.109375 -1.234375 -0.625 -1.859375q-0.796875 -0.96875 -2.078125 -0.96875q-1.140625 0 -1.9375 0.78125q-0.78125 0.765625 -0.859375 2.046875zm9.094482 5.875l0 -9.859375l1.5 0l0 1.5q0.578125 -1.046875 1.0625 -1.375q0.484375 -0.34375 1.078125 -0.34375q0.84375 0 1.71875 0.546875l-0.578125 1.546875q-0.609375 -0.359375 -1.234375 -0.359375q-0.546875 0 -0.984375 0.328125q-0.421875 0.328125 -0.609375 0.90625q-0.28125 0.890625 -0.28125 1.953125l0 5.15625l-1.671875 0z"
       fill-rule="nonzero"
       id="path3544" />
    <path
       fill="#0096d6"
       d="m544.35956 294.23096l0 0c0 -26.761871 25.149658 -48.45668 56.17328 -48.45668q28.086609 0 56.173218 0q0 24.228348 0 48.45668l0 0c0 26.761902 -25.149658 48.456696 -56.173218 48.456696l0 0c-31.02362 0 -56.17328 -21.694794 -56.17328 -48.456696z"
       fill-rule="evenodd"
       id="path3546" />
    <path
       stroke="#0d2c40"
       stroke-width="1.0"
       stroke-linejoin="round"
       stroke-linecap="butt"
       d="m544.35956 294.23096l0 0c0 -26.761871 25.149658 -48.45668 56.17328 -48.45668q28.086609 0 56.173218 0q0 24.228348 0 48.45668l0 0c0 26.761902 -25.149658 48.456696 -56.173218 48.456696l0 0c-31.02362 0 -56.17328 -21.694794 -56.17328 -48.456696z"
       fill-rule="evenodd"
       id="path3548" />
    <path
       fill="#000000"
       d="m571.28107 301.15097l0 -13.59375l4.6875 0q1.578125 0 2.421875 0.1875q1.15625 0.265625 1.984375 0.96875q1.078125 0.921875 1.609375 2.34375q0.53125 1.40625 0.53125 3.21875q0 1.546875 -0.359375 2.75q-0.359375 1.1875 -0.921875 1.984375q-0.5625 0.78125 -1.234375 1.234375q-0.671875 0.4375 -1.625 0.671875q-0.953125 0.234375 -2.1875 0.234375l-4.90625 0zm1.796875 -1.609375l2.90625 0q1.34375 0 2.109375 -0.25q0.765625 -0.25 1.21875 -0.703125q0.640625 -0.640625 1.0 -1.71875q0.359375 -1.078125 0.359375 -2.625q0 -2.125 -0.703125 -3.265625q-0.703125 -1.15625 -1.703125 -1.546875q-0.71875 -0.28125 -2.328125 -0.28125l-2.859375 0l0 10.390625zm11.441711 1.609375l0 -9.859375l1.5 0l0 1.5q0.578125 -1.046875 1.0625 -1.375q0.484375 -0.34375 1.078125 -0.34375q0.84375 0 1.71875 0.546875l-0.578125 1.546875q-0.609375 -0.359375 -1.234375 -0.359375q-0.546875 0 -0.984375 0.328125q-0.421875 0.328125 -0.609375 0.90625q-0.28125 0.890625 -0.28125 1.953125l0 5.15625l-1.671875 0zm5.6033325 -4.921875q0 -2.734375 1.53125 -4.0625q1.265625 -1.09375 3.09375 -1.09375q2.03125 0 3.3125 1.34375q1.296875 1.328125 1.296875 3.671875q0 1.90625 -0.578125 3.0q-0.5625 1.078125 -1.65625 1.6875q-1.078125 0.59375 -2.375 0.59375q-2.0625 0 -3.34375 -1.328125q-1.28125 -1.328125 -1.28125 -3.8125zm1.71875 0q0 1.890625 0.828125 2.828125q0.828125 0.9375 2.078125 0.9375q1.25 0 2.0625 -0.9375q0.828125 -0.953125 0.828125 -2.890625q0 -1.828125 -0.828125 -2.765625q-0.828125 -0.9375 -2.0625 -0.9375q-1.25 0 -2.078125 0.9375q-0.828125 0.9375 -0.828125 2.828125zm9.281921 8.703125l0 -13.640625l1.53125 0l0 1.28125q0.53125 -0.75 1.203125 -1.125q0.6875 -0.375 1.640625 -0.375q1.265625 0 2.234375 0.65625q0.96875 0.640625 1.453125 1.828125q0.5 1.1875 0.5 2.59375q0 1.515625 -0.546875 2.734375q-0.546875 1.203125 -1.578125 1.84375q-1.03125 0.640625 -2.171875 0.640625q-0.84375 0 -1.515625 -0.34375q-0.65625 -0.359375 -1.078125 -0.890625l0 4.796875l-1.671875 0zm1.515625 -8.65625q0 1.90625 0.765625 2.8125q0.78125 0.90625 1.875 0.90625q1.109375 0 1.890625 -0.9375q0.796875 -0.9375 0.796875 -2.921875q0 -1.875 -0.78125 -2.8125q-0.765625 -0.9375 -1.84375 -0.9375q-1.0625 0 -1.890625 1.0q-0.8125 1.0 -0.8125 2.890625zm8.828857 4.875l0 -13.59375l1.671875 0l0 13.59375l-1.671875 0zm10.926086 -3.171875l1.71875 0.21875q-0.40625 1.5 -1.515625 2.34375q-1.09375 0.828125 -2.8125 0.828125q-2.15625 0 -3.421875 -1.328125q-1.265625 -1.328125 -1.265625 -3.734375q0 -2.484375 1.265625 -3.859375q1.28125 -1.375 3.328125 -1.375q1.984375 0 3.234375 1.34375q1.25 1.34375 1.25 3.796875q0 0.140625 -0.015625 0.4375l-7.34375 0q0.09375 1.625 0.921875 2.484375q0.828125 0.859375 2.0625 0.859375q0.90625 0 1.546875 -0.46875q0.65625 -0.484375 1.046875 -1.546875zm-5.484375 -2.703125l5.5 0q-0.109375 -1.234375 -0.625 -1.859375q-0.796875 -0.96875 -2.078125 -0.96875q-1.140625 0 -1.9375 0.78125q-0.78125 0.765625 -0.859375 2.046875zm12.766357 4.375l0.234375 1.484375q-0.703125 0.140625 -1.265625 0.140625q-0.90625 0 -1.40625 -0.28125q-0.5 -0.296875 -0.703125 -0.75q-0.203125 -0.46875 -0.203125 -1.984375l0 -5.65625l-1.234375 0l0 -1.3125l1.234375 0l0 -2.4375l1.65625 -1.0l0 3.4375l1.6875 0l0 1.3125l-1.6875 0l0 5.75q0 0.71875 0.078125 0.921875q0.09375 0.203125 0.296875 0.328125q0.203125 0.125 0.578125 0.125q0.265625 0 0.734375 -0.078125z"
       fill-rule="nonzero"
       id="path3550" />
    <path
       fill="#66cc00"
       d="m206.45145 294.40158l79.700775 0l0 -2.984253l5.968506 5.968506l-5.968506 5.968506l0 -2.984253l-79.700775 0z"
       fill-rule="evenodd"
       id="path3552" />
    <path
       stroke="#0d2c40"
       stroke-width="1.0"
       stroke-linejoin="round"
       stroke-linecap="butt"
       d="m206.45145 294.40158l79.700775 0l0 -2.984253l5.968506 5.968506l-5.968506 5.968506l0 -2.984253l-79.700775 0z"
       fill-rule="evenodd"
       id="path3554" />
    <path
       fill="#fd9a2b"
       d="m374.27823 237.68242l3.685028 0l0 -41.76378l7.3700867 0l0 41.76378l3.685028 0l-7.3700867 7.3700714z"
       fill-rule="evenodd"
       id="path3556" />
    <path
       stroke="#0d2c40"
       stroke-width="1.0"
       stroke-linejoin="round"
       stroke-linecap="butt"
       d="m374.27823 237.68242l3.685028 0l0 -41.76378l7.3700867 0l0 41.76378l3.685028 0l-7.3700867 7.3700714z"
       fill-rule="evenodd"
       id="path3558" />
    <path
       fill="#02d35f"
       d="m377.79004 341.6378l7.370056 -7.370056l7.3700867 7.370056l-3.685028 0l0 41.763794l-7.3700867 0l0 -41.763794z"
       fill-rule="evenodd"
       id="path3560" />
    <path
       stroke="#0d2c40"
       stroke-width="1.0"
       stroke-linejoin="round"
       stroke-linecap="butt"
       d="m377.79004 341.6378l7.370056 -7.370056l7.3700867 7.370056l-3.685028 0l0 41.763794l-7.3700867 0l0 -41.763794z"
       fill-rule="evenodd"
       id="path3562" />
    <path
       fill="#0096d6"
       d="m464.86353 295.10498l73.52753 0l0 -2.984253l5.968506 5.968506l-5.968506 5.968506l0 -2.984253l-73.52753 0z"
       fill-rule="evenodd"
       id="path3564" />
    <path
       stroke="#0d2c40"
       stroke-width="1.0"
       stroke-linejoin="round"
       stroke-linecap="butt"
       d="m464.86353 295.10498l73.52753 0l0 -2.984253l5.968506 5.968506l-5.968506 5.968506l0 -2.984253l-73.52753 0z"
       fill-rule="evenodd"
       id="path3566" />
    <path
       fill="#a7a9ac"
       d="m740.51447 261.58267l143.04724 0l0 72.68506l-143.04724 0z"
       fill-rule="evenodd"
       id="path3568" />
    <path
       fill="#858789"
       d="m883.5617 261.58267l24.228333 -24.228348l0 72.68504l-24.228333 24.228363z"
       fill-rule="evenodd"
       id="path3570" />
    <path
       fill="#b8babc"
       d="m740.51447 261.58267l24.228333 -24.228348l143.04724 0l-24.228333 24.228348z"
       fill-rule="evenodd"
       id="path3572" />
    <path
       fill="#000000"
       fill-opacity="0.0"
       d="m740.51447 261.58267l24.228333 -24.228348l143.04724 0l0 72.68504l-24.228333 24.228363l-143.04724 0zm0 0l143.04724 0l24.228333 -24.228348m-24.228333 24.228348l0 72.68506"
       fill-rule="evenodd"
       id="path3574" />
    <path
       stroke="#0d2c40"
       stroke-width="1.0"
       stroke-linejoin="round"
       stroke-linecap="butt"
       d="m740.51447 261.58267l24.228333 -24.228348l143.04724 0l0 72.68504l-24.228333 24.228363l-143.04724 0zm0 0l143.04724 0l24.228333 -24.228348m-24.228333 24.228348l0 72.68506"
       fill-rule="evenodd"
       id="path3576" />
    <path
       fill="#0096d6"
       d="m761.19684 298.08923l0 0c0 -16.986023 22.94983 -30.75589 51.259827 -30.75589q25.629944 0 51.259888 0q0 15.37793 0 30.75589l0 0c0 16.986023 -22.94983 30.75592 -51.259888 30.75592l0 0c-28.309998 0 -51.259827 -13.769897 -51.259827 -30.75592z"
       fill-rule="evenodd"
       id="path3578" />
    <path
       stroke="#0d2c40"
       stroke-width="1.0"
       stroke-linejoin="round"
       stroke-linecap="butt"
       d="m761.19684 298.08923l0 0c0 -16.986023 22.94983 -30.75589 51.259827 -30.75589q25.629944 0 51.259888 0q0 15.37793 0 30.75589l0 0c0 16.986023 -22.94983 30.75592 -51.259888 30.75592l0 0c-28.309998 0 -51.259827 -13.769897 -51.259827 -30.75592z"
       fill-rule="evenodd"
       id="path3580" />
    <path
       fill="#000000"
       d="m807.96484 305.00925l-2.984375 0l-1.1875 -3.09375l-5.4375 0l-1.125 3.09375l-2.90625 0l5.296875 -13.59375l2.90625 0l5.4375 13.59375zm-5.046875 -5.375l-1.875 -5.046875l-1.84375 5.046875l3.71875 0zm6.1760864 -4.484375l2.421875 0l0 1.453125q0.46875 -0.734375 1.28125 -1.203125q0.8125 -0.46875 1.796875 -0.46875q1.703125 0 2.90625 1.34375q1.203125 1.34375 1.203125 3.75q0 2.46875 -1.21875 3.84375q-1.203125 1.359375 -2.921875 1.359375q-0.8125 0 -1.484375 -0.3125q-0.65625 -0.328125 -1.390625 -1.125l0 4.96875l-2.59375 0l0 -13.609375zm2.578125 4.765625q0 1.65625 0.65625 2.453125q0.65625 0.796875 1.59375 0.796875q0.921875 0 1.515625 -0.71875q0.609375 -0.734375 0.609375 -2.40625q0 -1.546875 -0.625 -2.296875q-0.625 -0.75 -1.53125 -0.75q-0.96875 0 -1.59375 0.734375q-0.625 0.734375 -0.625 2.1875zm8.817871 -4.765625l2.421875 0l0 1.453125q0.46875 -0.734375 1.28125 -1.203125q0.8125 -0.46875 1.796875 -0.46875q1.703125 0 2.90625 1.34375q1.203125 1.34375 1.203125 3.75q0 2.46875 -1.21875 3.84375q-1.203125 1.359375 -2.921875 1.359375q-0.8125 0 -1.484375 -0.3125q-0.65625 -0.328125 -1.390625 -1.125l0 4.96875l-2.59375 0l0 -13.609375zm2.578125 4.765625q0 1.65625 0.65625 2.453125q0.65625 0.796875 1.59375 0.796875q0.921875 0 1.515625 -0.71875q0.609375 -0.734375 0.609375 -2.40625q0 -1.546875 -0.625 -2.296875q-0.625 -0.75 -1.53125 -0.75q-0.96875 0 -1.59375 0.734375q-0.625 0.734375 -0.625 2.1875z"
       fill-rule="nonzero"
       id="path3582" />
    <path
       fill="#0096d6"
       d="m661.0171 291.2467l73.52753 0l0 -2.9842224l5.968506 5.9684753l-5.968506 5.968506l0 -2.984253l-73.52753 0z"
       fill-rule="evenodd"
       id="path3584" />
    <path
       stroke="#0d2c40"
       stroke-width="1.0"
       stroke-linejoin="round"
       stroke-linecap="butt"
       d="m661.0171 291.2467l73.52753 0l0 -2.9842224l5.968506 5.9684753l-5.968506 5.968506l0 -2.984253l-73.52753 0z"
       fill-rule="evenodd"
       id="path3586" />
  </g>
</svg>
